<svg width="743" height="596" viewBox="0 0 743 596" fill="none" xmlns="http://www.w3.org/2000/svg">
<path d="M103 -104H249.667C256.739 -104 263.522 -101.19 268.523 -96.1895C273.524 -91.1885 276.333 -84.4058 276.333 -77.3333V469.333C276.333 476.406 273.524 483.189 268.523 488.19C263.522 493.19 256.739 496 249.667 496H103C95.9276 496 89.1448 493.19 84.1439 488.19C79.1429 483.189 76.3334 476.406 76.3334 469.333V-77.3333C76.3334 -84.4058 79.1429 -91.1885 84.1439 -96.1895C89.1448 -101.19 95.9276 -104 103 -104ZM436.333 -104H583C590.072 -104 596.855 -101.19 601.856 -96.1895C606.857 -91.1885 609.667 -84.4058 609.667 -77.3333V469.333C609.667 476.406 606.857 483.189 601.856 488.19C596.855 493.19 590.072 496 583 496H436.333C429.261 496 422.478 493.19 417.477 488.19C412.476 483.189 409.667 476.406 409.667 469.333V-77.3333C409.667 -84.4058 412.476 -91.1885 417.477 -96.1895C422.478 -101.19 429.261 -104 436.333 -104Z" fill="white"/>
</svg>
